<svg width="24" height="24" viewBox="0 0 24 24" fill="none" xmlns="http://www.w3.org/2000/svg">
<g id="logos:google-icon" clip-path="url(#clip0_1606_1699)">
<path id="Vector" d="M23.9878 12.2242C23.9878 11.2409 23.9061 10.5234 23.7294 9.7793H12.2383V14.2173H18.9833C18.8474 15.3202 18.113 16.9811 16.4811 18.0972L16.4583 18.2458L20.0915 20.996L20.3433 21.0205C22.655 18.9344 23.9878 15.8649 23.9878 12.2242Z" fill="#4285F4"/>
<path id="Vector_2" d="M12.2383 23.9178C15.5428 23.9178 18.3169 22.8548 20.3433 21.0211L16.4811 18.0978C15.4476 18.8021 14.0605 19.2937 12.2383 19.2937C9.00175 19.2937 6.25478 17.2076 5.27556 14.3242L5.13203 14.3361L1.35409 17.193L1.30469 17.3271C3.31731 21.2337 7.45141 23.9178 12.2383 23.9178Z" fill="#34A853"/>
<path id="Vector_3" d="M5.27634 14.3248C5.01797 13.5807 4.86844 12.7834 4.86844 11.9596C4.86844 11.1357 5.01797 10.3385 5.26275 9.59439L5.25591 9.43592L1.43062 6.5332L1.30547 6.59137C0.475969 8.21247 0 10.0329 0 11.9596C0 13.8863 0.475969 15.7066 1.30547 17.3277L5.27634 14.3248Z" fill="#FBBC05"/>
<path id="Vector_4" d="M12.2383 4.62403C14.5365 4.62403 16.0867 5.59402 16.9707 6.40461L20.4248 3.10928C18.3034 1.1826 15.5428 0 12.2383 0C7.45141 0 3.31731 2.68406 1.30469 6.59056L5.26197 9.59359C6.25478 6.7102 9.00175 4.62403 12.2383 4.62403Z" fill="#EB4335"/>
</g>
<defs>
<clipPath id="clip0_1606_1699">
<rect width="24" height="24" fill="white"/>
</clipPath>
</defs>
</svg>
